<svg width="24" height="25" viewBox="0 0 24 25" fill="none" xmlns="http://www.w3.org/2000/svg">
<g clip-path="url(#clip0_1232_2838)">
<path d="M11.64 5.73C11.539 5.6458 11.4223 5.58236 11.2967 5.54331C11.1711 5.50427 11.039 5.49039 10.908 5.50246C10.7771 5.51454 10.6497 5.55234 10.5334 5.61369C10.4171 5.67504 10.314 5.75874 10.23 5.86L5.23001 11.86C5.08292 12.0389 5.00252 12.2634 5.00252 12.495C5.00252 12.7266 5.08292 12.9511 5.23001 13.13L10.06 19.13C10.1541 19.246 10.273 19.3395 10.408 19.4035C10.543 19.4675 10.6906 19.5005 10.84 19.5C11.0292 19.5006 11.2148 19.4476 11.3751 19.347C11.5353 19.2464 11.6638 19.1024 11.7455 18.9317C11.8271 18.761 11.8587 18.5706 11.8365 18.3827C11.8143 18.1947 11.7392 18.017 11.62 17.87L7.29001 12.5L11.77 7.13C11.9369 6.9265 12.0169 6.66538 11.9926 6.4033C11.9683 6.14121 11.8416 5.89928 11.64 5.73Z" fill="#696969"/>
<path d="M14.29 12.5L18.77 7.13C18.9397 6.92578 19.0214 6.6625 18.997 6.39808C18.9726 6.13365 18.8442 5.88974 18.64 5.72C18.4358 5.55026 18.1725 5.4686 17.9081 5.49298C17.6437 5.51736 17.3997 5.64578 17.23 5.85L12.23 11.85C12.0829 12.0289 12.0025 12.2534 12.0025 12.485C12.0025 12.7166 12.0829 12.9411 12.23 13.12L17.06 19.12C17.1541 19.236 17.273 19.3295 17.408 19.3935C17.543 19.4575 17.6906 19.4905 17.84 19.49C18.0292 19.4906 18.2148 19.4376 18.3751 19.337C18.5353 19.2364 18.6638 19.0924 18.7455 18.9217C18.8271 18.751 18.8587 18.5606 18.8365 18.3727C18.8143 18.1847 18.7392 18.007 18.62 17.86L14.29 12.5Z" fill="#4A4A4A"/>
</g>
<defs>
<clipPath id="clip0_1232_2838">
<rect width="24" height="24" fill="white" transform="translate(0 0.5)"/>
</clipPath>
</defs>
</svg>
