<svg width="140" height="23" viewBox="0 0 140 23" fill="none" xmlns="http://www.w3.org/2000/svg">
<rect width="23" height="23" rx="6" fill="#FF0000"/>
<path d="M8.29143 18H6L10.172 6H12.8222L17 18H14.7086L11.5434 8.46094H11.4508L8.29143 18ZM8.36665 13.2949H14.616V15.041H8.36665V13.2949Z" fill="white"/>
<path d="M36.1374 18H33.4656L38.3303 4.18182H41.4205L46.2919 18H43.62L39.9293 7.01562H39.8214L36.1374 18ZM36.2251 12.582H43.5121V14.5927H36.2251V12.582ZM55.1222 11.8061V13.81H49.6031V11.8061H55.1222ZM50.3588 7.63636V18H48.004V7.63636H50.3588ZM56.7213 7.63636V18H54.3733V7.63636H56.7213ZM58.032 9.64027V7.63636H67.1001V9.64027H63.7468V18H61.3853V9.64027H58.032ZM71.3998 14.6939L75.5493 7.63636H78.0592V18H75.6977V10.9357L71.5617 18H69.045V7.63636H71.3998V14.6939ZM87.6857 11.8061V13.81H82.1665V11.8061H87.6857ZM82.9222 7.63636V18H80.5675V7.63636H82.9222ZM89.2848 7.63636V18H86.9368V7.63636H89.2848ZM96.2765 18.2024C95.2645 18.2024 94.3873 17.9798 93.6452 17.5344C92.903 17.0891 92.3272 16.4661 91.9179 15.6655C91.5131 14.8648 91.3106 13.9292 91.3106 12.8587C91.3106 11.7881 91.5131 10.8503 91.9179 10.0451C92.3272 9.23994 92.903 8.6147 93.6452 8.16939C94.3873 7.72408 95.2645 7.50142 96.2765 7.50142C97.2886 7.50142 98.1657 7.72408 98.9079 8.16939C99.6501 8.6147 100.224 9.23994 100.628 10.0451C101.038 10.8503 101.242 11.7881 101.242 12.8587C101.242 13.9292 101.038 14.8648 100.628 15.6655C100.224 16.4661 99.6501 17.0891 98.9079 17.5344C98.1657 17.9798 97.2886 18.2024 96.2765 18.2024ZM96.29 16.2457C96.8388 16.2457 97.2976 16.0951 97.6665 15.7937C98.0353 15.4878 98.3097 15.0785 98.4896 14.5657C98.674 14.0529 98.7662 13.4817 98.7662 12.8519C98.7662 12.2177 98.674 11.6442 98.4896 11.1314C98.3097 10.6141 98.0353 10.2025 97.6665 9.89666C97.2976 9.59079 96.8388 9.43785 96.29 9.43785C95.7278 9.43785 95.26 9.59079 94.8866 9.89666C94.5178 10.2025 94.2412 10.6141 94.0567 11.1314C93.8768 11.6442 93.7868 12.2177 93.7868 12.8519C93.7868 13.4817 93.8768 14.0529 94.0567 14.5657C94.2412 15.0785 94.5178 15.4878 94.8866 15.7937C95.26 16.0951 95.7278 16.2457 96.29 16.2457ZM103.316 21.8864V7.63636H105.718V9.35014H105.859C105.985 9.09825 106.163 8.83061 106.392 8.54723C106.622 8.25935 106.932 8.0142 107.323 7.81179C107.715 7.60488 108.214 7.50142 108.821 7.50142C109.622 7.50142 110.344 7.70608 110.987 8.11541C111.635 8.52024 112.148 9.12074 112.525 9.9169C112.908 10.7086 113.099 11.6802 113.099 12.8317C113.099 13.9697 112.912 14.9368 112.539 15.733C112.166 16.5291 111.657 17.1364 111.014 17.5547C110.371 17.973 109.642 18.1822 108.828 18.1822C108.234 18.1822 107.742 18.0832 107.35 17.8853C106.959 17.6874 106.644 17.449 106.406 17.1701C106.172 16.8867 105.99 16.6191 105.859 16.3672H105.758V21.8864H103.316ZM105.711 12.8182C105.711 13.4884 105.805 14.0754 105.994 14.5792C106.188 15.083 106.464 15.4766 106.824 15.7599C107.188 16.0388 107.629 16.1783 108.146 16.1783C108.686 16.1783 109.138 16.0343 109.503 15.7464C109.867 15.4541 110.141 15.056 110.326 14.5522C110.515 14.0439 110.609 13.4659 110.609 12.8182C110.609 12.175 110.517 11.6037 110.333 11.1044C110.148 10.6051 109.874 10.2138 109.509 9.9304C109.145 9.64702 108.691 9.50533 108.146 9.50533C107.625 9.50533 107.182 9.64252 106.817 9.9169C106.453 10.1913 106.176 10.5759 105.987 11.0707C105.803 11.5655 105.711 12.148 105.711 12.8182ZM121.155 15.1594L124.232 7.63636H126.202L122.012 18H120.305L116.209 7.63636H118.159L121.155 15.1594ZM117.545 7.63636V18H115.191V7.63636H117.545ZM124.866 18V7.63636H127.2V18H124.866ZM132.645 18.2092C131.989 18.2092 131.397 18.0922 130.871 17.8583C130.349 17.6199 129.935 17.2691 129.629 16.8058C129.328 16.3424 129.177 15.7712 129.177 15.092C129.177 14.5072 129.285 14.0237 129.501 13.6413C129.717 13.259 130.012 12.9531 130.385 12.7237C130.758 12.4943 131.179 12.3211 131.647 12.2042C132.119 12.0827 132.607 11.995 133.111 11.9411C133.718 11.8781 134.211 11.8219 134.589 11.7724C134.966 11.7184 135.241 11.6374 135.412 11.5295C135.587 11.417 135.675 11.2438 135.675 11.0099V10.9695C135.675 10.4612 135.524 10.0676 135.223 9.78871C134.921 9.50982 134.487 9.37038 133.921 9.37038C133.322 9.37038 132.848 9.50083 132.497 9.76172C132.151 10.0226 131.917 10.3307 131.795 10.6861L129.515 10.3622C129.695 9.73248 129.992 9.2062 130.405 8.78338C130.819 8.35606 131.325 8.03669 131.923 7.82528C132.522 7.60938 133.183 7.50142 133.907 7.50142C134.406 7.50142 134.903 7.5599 135.398 7.67685C135.893 7.7938 136.345 7.98722 136.754 8.2571C137.164 8.52249 137.492 8.88459 137.74 9.34339C137.991 9.8022 138.117 10.3757 138.117 11.0639V18H135.769V16.5763H135.688C135.54 16.8642 135.331 17.1341 135.061 17.386C134.796 17.6334 134.46 17.8336 134.056 17.9865C133.655 18.1349 133.185 18.2092 132.645 18.2092ZM133.28 16.4144C133.77 16.4144 134.195 16.3177 134.555 16.1243C134.915 15.9264 135.191 15.6655 135.385 15.3416C135.583 15.0178 135.682 14.6647 135.682 14.2823V13.0611C135.605 13.1241 135.475 13.1825 135.29 13.2365C135.11 13.2905 134.908 13.3377 134.683 13.3782C134.458 13.4187 134.235 13.4547 134.015 13.4862C133.795 13.5176 133.604 13.5446 133.442 13.5671C133.077 13.6166 132.751 13.6976 132.463 13.81C132.175 13.9225 131.948 14.0799 131.782 14.2823C131.615 14.4802 131.532 14.7366 131.532 15.0515C131.532 15.5013 131.696 15.8409 132.025 16.0703C132.353 16.2997 132.771 16.4144 133.28 16.4144Z" fill="white"/>
</svg>
