<svg width="18" height="18" viewBox="0 0 18 18" fill="none" xmlns="http://www.w3.org/2000/svg">
<g clip-path="url(#clip0_1236_5707)">
<path d="M4.71429 2.875C3.76875 2.875 3 3.65977 3 4.625V13.375C3 14.3402 3.76875 15.125 4.71429 15.125H13.2857C14.2312 15.125 15 14.3402 15 13.375V4.625C15 3.65977 14.2312 2.875 13.2857 2.875H4.71429ZM8.35714 11.4062V9.65625H6.64286C6.28661 9.65625 6 9.36367 6 9C6 8.63633 6.28661 8.34375 6.64286 8.34375H8.35714V6.59375C8.35714 6.23008 8.64375 5.9375 9 5.9375C9.35625 5.9375 9.64286 6.23008 9.64286 6.59375V8.34375H11.3571C11.7134 8.34375 12 8.63633 12 9C12 9.36367 11.7134 9.65625 11.3571 9.65625H9.64286V11.4062C9.64286 11.7699 9.35625 12.0625 9 12.0625C8.64375 12.0625 8.35714 11.7699 8.35714 11.4062Z" fill="#43CB92"/>
</g>
<defs>
<clipPath id="clip0_1236_5707">
<rect width="12" height="14" fill="white" transform="translate(3 2)"/>
</clipPath>
</defs>
</svg>
