<svg width="18" height="18" viewBox="0 0 18 18" fill="none" xmlns="http://www.w3.org/2000/svg">
<g clip-path="url(#clip0_1236_5725)">
<path d="M4.71429 2.875C3.76875 2.875 3 3.65977 3 4.625V13.375C3 14.3402 3.76875 15.125 4.71429 15.125H13.2857C14.2312 15.125 15 14.3402 15 13.375V4.625C15 3.65977 14.2312 2.875 13.2857 2.875H4.71429ZM7.07143 8.34375H10.9286C11.2848 8.34375 11.5714 8.63633 11.5714 9C11.5714 9.36367 11.2848 9.65625 10.9286 9.65625H7.07143C6.71518 9.65625 6.42857 9.36367 6.42857 9C6.42857 8.63633 6.71518 8.34375 7.07143 8.34375Z" fill="#FF0000"/>
</g>
<defs>
<clipPath id="clip0_1236_5725">
<rect width="12" height="14" fill="white" transform="translate(3 2)"/>
</clipPath>
</defs>
</svg>
